<?xml version="1.0" encoding="UTF-8" standalone="no"?>
<svg
   xmlns:dc="http://purl.org/dc/elements/1.1/"
   xmlns:cc="http://creativecommons.org/ns#"
   xmlns:rdf="http://www.w3.org/1999/02/22-rdf-syntax-ns#"
   xmlns:svg="http://www.w3.org/2000/svg"
   xmlns="http://www.w3.org/2000/svg"
   xmlns:sodipodi="http://sodipodi.sourceforge.net/DTD/sodipodi-0.dtd"
   xmlns:inkscape="http://www.inkscape.org/namespaces/inkscape"
   inkscape:version="1.0 (4035a4fb49, 2020-05-01)"
   sodipodi:docname="K Logo Inverted-White SVG.svg"
   viewBox="0 0 1917 1039"
   height="1039"
   width="1917"
   id="svg10"
   version="1.1">
  <metadata
     id="metadata16">
    <rdf:RDF>
      <cc:Work
         rdf:about="">
        <dc:format>image/svg+xml</dc:format>
        <dc:type
           rdf:resource="http://purl.org/dc/dcmitype/StillImage" />
        <dc:title></dc:title>
      </cc:Work>
    </rdf:RDF>
  </metadata>
  <defs
     id="defs14" />
  <sodipodi:namedview
     inkscape:current-layer="g18"
     inkscape:window-maximized="1"
     inkscape:window-y="-8"
     inkscape:window-x="-8"
     inkscape:cy="519.5"
     inkscape:cx="406.58233"
     inkscape:zoom="0.56077204"
     showgrid="false"
     id="namedview12"
     inkscape:window-height="1017"
     inkscape:window-width="1920"
     inkscape:pageshadow="2"
     inkscape:pageopacity="0"
     guidetolerance="10"
     gridtolerance="10"
     objecttolerance="10"
     borderopacity="1"
     bordercolor="#666666"
     pagecolor="#ffffff" />
  <g
     id="g18"
     inkscape:label="Image"
     inkscape:groupmode="layer">
    <path
       id="path24"
       d="m 416.22373,911.26333 c -1.22199,-2.97732 -0.87558,-64.01231 0.37039,-65.25783 1.75576,-1.75515 64.33618,-1.50377 66.10549,0.26554 1.08799,1.08799 1.36783,7.83276 1.40214,33.79412 l 0.0429,32.43484 -33.59857,0.26333 c -31.29813,0.24531 -33.64813,0.1426 -34.32231,-1.5 z m 61.6704,-4.63576 c 0.80487,-0.96982 1.06081,-9.2573 0.87244,-28.25 L 478.5,851.5 h -28 -28 l -0.26678,26.98509 c -0.14672,14.8418 -0.0484,27.5543 0.21862,28.25 0.73945,1.92699 53.83926,1.82401 55.44229,-0.10752 z m 57.77254,5.70576 c -1.28176,-1.28175 -0.63966,-4.86936 1.67045,-9.33333 3.49511,-6.75383 7.73384,-14.19116 9.68875,-17 1.85196,-2.66092 4.9905,-8.10854 8.21274,-14.25499 1.08269,-2.06525 2.30681,-3.96406 2.72026,-4.21959 0.41345,-0.25553 2.25898,-3.40328 4.10118,-6.99501 1.84219,-3.59172 3.70731,-6.53041 4.1447,-6.53041 0.43739,0 0.79525,-0.43619 0.79525,-0.96932 0,-0.53313 2.3625,-4.92063 5.25,-9.75 2.8875,-4.82937 5.59089,-9.45568 6.00754,-10.28068 0.41665,-0.825 1.89835,-3.3 3.29267,-5.5 1.39432,-2.2 2.79341,-4.7875 3.10909,-5.75 0.31568,-0.9625 0.97148,-1.75 1.45733,-1.75 0.48585,0 0.88337,-0.47162 0.88337,-1.04804 0,-0.57642 1.575,-3.51015 3.5,-6.51941 1.925,-3.00926 3.5,-5.91265 3.5,-6.45197 0,-0.53932 0.35134,-0.98058 0.78076,-0.98058 0.42942,0 1.30609,-1.2375 1.94815,-2.75 0.64206,-1.5125 2.54398,-5 4.22649,-7.75 1.68251,-2.75 4.01742,-6.8 5.1887,-9 1.17127,-2.2 3.41801,-5.88108 4.99275,-8.18018 1.57473,-2.29909 2.86315,-4.45821 2.86315,-4.79803 0,-0.33983 1.575,-3.07998 3.5,-6.08924 1.925,-3.00926 3.5,-5.67891 3.5,-5.93255 0,-0.25364 1.47603,-2.8324 3.28006,-5.73058 1.80404,-2.89818 3.90508,-6.50692 4.66898,-8.01942 0.76391,-1.5125 1.76288,-2.75 2.21994,-2.75 0.45706,0 0.83102,-0.50396 0.83102,-1.1199 0,-1.15066 8.65859,-16.30129 14.63881,-25.61472 1.84866,-2.87903 3.36119,-5.48815 3.36119,-5.79803 0,-0.30988 1.575,-3.02554 3.5,-6.0348 1.925,-3.00926 3.5,-5.67891 3.5,-5.93255 0,-0.25364 1.575,-2.92329 3.5,-5.93255 1.925,-3.00926 3.5,-5.70926 3.5,-6 0,-0.29074 1.575,-2.99074 3.5,-6 1.925,-3.00926 3.5,-5.72492 3.5,-6.0348 0,-0.30988 1.49969,-2.919 3.33265,-5.79803 4.31752,-6.78156 9.29728,-15.07655 12.44768,-20.73462 1.37807,-2.475 3.34125,-5.69447 4.36262,-7.15437 1.02138,-1.4599 1.85705,-2.94402 1.85705,-3.29804 0,-0.35401 1.575,-3.10578 3.5,-6.11504 1.925,-3.00926 3.5,-5.98267 3.5,-6.60758 0,-0.99566 -4.38382,-7.46394 -5.98105,-8.82497 -0.32272,-0.275 -2.3708,-2.75 -4.55129,-5.5 -2.18049,-2.75 -6.44023,-7.98003 -9.46609,-11.62228 C 676.97571,596.23546 670.675,588.43199 666,582.53666 661.325,576.64133 657.02445,571.29635 656.44322,570.65894 655.86199,570.02152 648.95732,561.625 641.09951,552 633.2417,542.375 626.06657,533.6 625.15478,532.5 623.47889,530.47818 616.76166,522.14848 614,518.66751 c -0.825,-1.03988 -1.97997,-2.40298 -2.5666,-3.0291 -0.58662,-0.62613 -1.87588,-2.37591 -2.865,-3.88841 -1.72523,-2.63809 -1.72602,-2.86191 -0.0194,-5.5 1.93579,-2.99242 10.00729,-12.83777 12.50237,-15.25 0.85334,-0.825 2.87341,-3.3 4.48905,-5.5 1.61564,-2.2 3.62247,-4.675 4.45962,-5.5 0.83715,-0.825 2.84334,-3.3 4.45819,-5.5 1.61484,-2.2 3.20013,-4.225 3.52286,-4.5 0.32272,-0.275 2.37151,-2.75 4.55286,-5.5 2.18135,-2.75 4.21717,-5.225 4.52405,-5.5 0.30688,-0.275 1.20688,-1.43754 2,-2.58341 0.79312,-1.14588 3.11154,-4.07088 5.15204,-6.5 2.04049,-2.42913 10.48325,-12.74159 18.76168,-22.91659 8.27842,-10.175 17.74643,-21.79226 21.04,-25.81613 C 697.30526,397.16 700,393.42588 700,392.88584 c 0,-0.54005 -1.575,-3.44403 -3.5,-6.45329 -1.925,-3.00926 -3.5,-5.65775 -3.5,-5.88552 0,-0.42927 -3.68318,-6.68886 -10.03056,-17.04703 -2.02221,-3.3 -4.96871,-8.25 -6.54777,-11 -1.57907,-2.75 -3.91331,-6.8 -5.18721,-9 -1.27389,-2.2 -2.57527,-4.7875 -2.89195,-5.75 C 668.02584,336.7875 667.36922,336 666.88337,336 666.39752,336 666,335.5546 666,335.01023 c 0,-0.54438 -2.025,-4.14898 -4.5,-8.01023 -2.475,-3.86125 -4.5,-7.23212 -4.5,-7.49081 0,-0.2587 -1.575,-2.93248 -3.5,-5.94174 -1.925,-3.00926 -3.5,-5.74941 -3.5,-6.08924 0,-0.33982 -1.27638,-2.49894 -2.8364,-4.79803 -1.56001,-2.2991 -4.14132,-6.65518 -5.73623,-9.68018 -1.59491,-3.025 -4.36853,-7.84088 -6.1636,-10.70196 C 633.4687,279.43696 632,276.62446 632,276.04804 632,275.47162 631.55,275 631,275 c -0.55,0 -1,-0.49303 -1,-1.09563 0,-0.6026 -0.83567,-2.2901 -1.85705,-3.75 -1.02137,-1.4599 -2.9949,-4.67937 -4.38563,-7.15437 -2.1728,-3.86683 -5.35797,-9.30843 -9.26201,-15.8234 C 607.38255,235.307 603,227.70424 603,227.23474 c 0,-0.31749 -0.61193,-1.28769 -1.35984,-2.156 -0.74791,-0.86831 -2.70104,-4.05374 -4.34028,-7.07874 -1.63924,-3.025 -4.62731,-8.06588 -6.64016,-11.20196 -2.01285,-3.13608 -3.65972,-5.98 -3.65972,-6.31983 0,-0.33982 -1.28285,-2.49894 -2.85078,-4.79803 -1.56793,-2.2991 -3.9793,-6.20518 -5.35861,-8.68018 -4.90443,-8.80038 -6.71521,-11.92031 -9.2369,-15.91491 C 568.14917,168.86015 567,166.78805 567,166.48042 c 0,-0.30763 -1.575,-2.89806 -3.5,-5.75652 -1.925,-2.85846 -3.5,-5.54763 -3.5,-5.97594 0,-0.4283 -1.51295,-3.13431 -3.36211,-6.01334 -5.35642,-8.33964 -17.96798,-29.86502 -19.94844,-34.04794 -0.9958,-2.10323 -1.6708,-4.79438 -1.5,-5.98034 0.63956,-4.44077 2.89852,-4.67596 45.06055,-4.6916 37.99596,-0.0141 39.82722,0.0703 41.5,1.91358 2.99781,3.30329 3.16352,3.56 10.05181,15.57168 1.89244,3.3 4.53441,7.8 5.87105,10 1.33664,2.2 2.95571,5.2375 3.59793,6.75 0.64223,1.5125 1.51903,2.75 1.94845,2.75 0.42942,0 0.78076,0.675 0.78076,1.5 0,0.825 0.45,1.5 1,1.5 0.55,0 1,0.49303 1,1.09563 0,0.6026 0.83567,2.2901 1.85705,3.75 1.02137,1.4599 2.99088,4.67937 4.37669,7.15437 6.33566,11.31524 9.91745,17.40358 11.76506,19.99832 1.10066,1.54573 2.0012,3.07169 2.0012,3.39103 0,0.31933 1.4625,2.94986 3.25,5.84563 5.38665,8.72641 6.76397,11.13824 8.00354,14.01502 0.65171,1.5125 1.53628,2.75 1.9657,2.75 0.42942,0 0.78076,0.675 0.78076,1.5 0,0.825 0.39752,1.5 0.88337,1.5 0.48585,0 1.13548,0.7875 1.44363,1.75 0.30814,0.9625 2.04812,4.25362 3.86663,7.31361 1.8185,3.05998 4.60714,7.78498 6.19696,10.5 1.58983,2.71501 3.97489,6.64834 5.30014,8.74072 2.10646,3.32579 4.97239,8.32043 8.7193,15.19567 0.59948,1.1 1.31497,2.225 1.58997,2.5 0.97461,0.97461 4.15656,6.53923 5.28932,9.25 0.63204,1.5125 1.5005,2.75 1.92992,2.75 0.42942,0 0.78076,0.49303 0.78076,1.09563 0,0.6026 0.83567,2.2901 1.85705,3.75 1.02137,1.4599 2.99444,4.71483 4.38461,7.23317 4.24403,7.68827 5.23808,9.40094 5.75834,9.9212 0.44945,0.44945 2.4166,3.89337 5.42636,9.5 0.5905,1.1 1.31241,2.225 1.60424,2.5 1.08548,1.02288 7.9694,13.1779 7.9694,14.07167 0,0.51058 0.3375,0.93184 0.75,0.93613 0.4125,0.004 1.24188,1.01679 1.84308,2.25 1.94321,3.98607 4.89154,9.22724 5.47986,9.74144 0.31512,0.27542 0.87633,1.3217 1.24713,2.32506 0.55717,1.50766 0.89164,1.59326 1.92706,0.49318 1.29635,-1.37733 10.34566,-12.14866 12.44135,-14.80886 3.53774,-4.49072 8.84316,-11.03018 12.10871,-14.92521 2.03654,-2.42912 4.36206,-5.35412 5.16782,-6.5 0.80576,-1.14587 2.29648,-2.98341 3.31271,-4.08341 1.01624,-1.1 5.98199,-7.10472 11.03499,-13.34382 5.05301,-6.23911 12.56229,-15.46411 16.68729,-20.5 l 7.5,-9.15618 0.5,-67.83893 0.5,-67.83894 2.36078,-1.91106 C 828.07605,104.11779 830.21294,104 860.529,104 c 17.76908,0 33.01923,0.27314 33.88921,0.60699 1.43877,0.55211 1.58179,37.126 1.58179,404.51263 v 403.90564 l -35.74043,-0.26263 -35.74043,-0.26263 -0.64125,-3 c -0.3527,-1.65 -0.6945,-32.60795 -0.75958,-68.79545 L 823,774.90909 l -2.25,-2.27437 c -1.2375,-1.2509 -3.15,-3.53031 -4.25,-5.06535 -1.1,-1.53504 -2.46109,-3.30362 -3.02464,-3.93018 -0.89272,-0.99253 -18.52121,-22.5519 -21.78212,-26.63919 -6.79976,-8.52297 -9.27497,-11.57654 -9.72715,-12 -0.44938,-0.42084 -4.85946,-5.87777 -9.67443,-11.9709 -6.22366,-7.87576 -18.006,-21.46867 -18.83532,-21.72971 -0.57402,-0.18067 -2.01819,1.59055 -3.20927,3.93606 -2.48702,4.89747 -5.49314,10.03458 -6.29917,10.76455 -0.30366,0.275 -1.3286,2.075 -2.27765,4 -1.84417,3.74061 -3.85449,7.18424 -4.67025,8 -0.275,0.275 -1.14373,1.625 -1.93051,3 -0.78678,1.375 -2.84305,4.975 -4.56949,8 -1.72644,3.025 -3.78271,6.625 -4.56949,8 -0.78678,1.375 -1.66233,2.725 -1.94566,3 -0.28333,0.275 -1.40833,2.40734 -2.5,4.73853 -1.09167,2.33119 -2.32235,4.24369 -2.73485,4.25 -0.4125,0.006 -0.75,0.68647 -0.75,1.51147 0,0.825 -0.45,1.5 -1,1.5 -0.55,0 -1,0.47162 -1,1.04804 0,0.57642 -1.575,3.51015 -3.5,6.51941 -1.925,3.00926 -3.5,5.91265 -3.5,6.45197 0,0.53932 -0.34384,0.98058 -0.7641,0.98058 -0.42025,0 -1.56796,1.6875 -2.55045,3.75 -2.10809,4.42541 -3.10456,6.15121 -7.43545,12.87752 -1.7875,2.77617 -3.25,5.3771 -3.25,5.77985 0,0.40275 -1.35,2.69444 -3,5.09263 -1.65,2.39819 -3,4.84177 -3,5.43018 0,0.5884 -0.3375,1.07408 -0.75,1.07929 -0.4125,0.005 -1.63835,2.03021 -2.72412,4.5 -1.08577,2.46979 -2.32327,4.49053 -2.75,4.49053 -0.42673,0 -0.77588,0.675 -0.77588,1.5 0,0.825 -0.3375,1.507 -0.75,1.51555 -0.4125,0.009 -1.86669,2.28993 -3.23154,5.06972 -1.36485,2.77979 -3.05235,5.5279 -3.75,6.10689 -0.69765,0.579 -1.26846,1.67263 -1.26846,2.43028 0,0.75766 -0.34384,1.37756 -0.7641,1.37756 -0.42025,0 -1.54733,1.6875 -2.50461,3.75 -1.72097,3.7079 -2.65581,5.33812 -5.89162,10.27415 -1.69031,2.57846 -6.20471,10.65719 -8.22447,14.71805 -0.61336,1.23321 -1.4527,2.24571 -1.8652,2.25 -0.4125,0.004 -0.75,0.6828 -0.75,1.5078 0,0.825 -0.3375,1.50426 -0.75,1.50947 -0.4125,0.005 -1.63835,2.03021 -2.72412,4.5 -1.08577,2.46979 -2.25307,4.49053 -2.59402,4.49053 -0.34094,0 -2.37759,3.37421 -4.52588,7.49824 -2.14829,4.12403 -4.24348,7.49903 -4.65598,7.5 -0.4125,9.7e-4 -0.75,0.67676 -0.75,1.50176 0,0.825 -0.35774,1.5 -0.79498,1.5 -0.43724,0 -1.63005,2.025 -2.6507,4.5 -1.02064,2.475 -2.2379,4.5 -2.70502,4.5 -0.46711,0 -0.8493,0.42199 -0.8493,0.93776 0,0.51577 -1.88263,3.89077 -4.18362,7.5 L 621.63276,913 h -42.64971 c -23.45735,0 -42.94972,-0.3 -43.31638,-0.66667 z M 618.20295,905.25 c 0.83211,-0.9625 6.91208,-10.975 13.51104,-22.25 6.59896,-11.275 23.15313,-39.4 36.78704,-62.5 13.63392,-23.1 30.74545,-52.125 38.02562,-64.5 40.98874,-69.67355 43.2592,-73.37664 45.49655,-74.20428 1.48404,-0.54899 2.89988,-0.39901 4.07205,0.43133 0.98833,0.70012 18.02121,21.2468 37.85085,45.65928 L 830,772.27266 v 66.24122 c 0,54.89563 0.23485,66.43614 1.3712,67.37922 0.97205,0.80674 9.77751,1.0607 30.25,0.87245 L 890.5,906.5 v -397 -397 l -29.43147,-0.26539 c -22.87976,-0.20632 -29.61027,0.0163 -30.23469,1 -0.44177,0.69596 -0.81011,30.91396 -0.81853,67.15111 L 830,246.27144 l -7.71847,9.61428 c -11.43253,14.2406 -61.12253,75.1787 -63.8996,78.36428 -1.57226,1.80354 -3.38447,2.75 -5.26545,2.75 -2.7185,0 -4.13516,-2.15153 -27.16065,-41.25 C 712.59492,273.0625 693.57301,240.775 683.68491,224 673.79681,207.225 661.34754,186.075 656.01986,177 625.87193,125.64694 618.56072,113.42867 617.58294,112.76531 616.48784,112.02237 544,111.66119 544,112.39867 c 0,0.21927 3.43108,6.18177 7.62461,13.25 7.48462,12.61537 22.8078,38.59662 71.57038,121.35133 13.44945,22.825 38.05984,64.57992 54.68975,92.78871 24.12612,40.92436 30.17346,51.88258 29.92573,54.22755 -0.31067,2.94074 -2.61861,5.85791 -69.08197,87.31752 -15.02458,18.4146 -22.4703,28.29335 -21.88614,29.03785 0.83824,1.06832 68.29197,83.97985 83.86125,103.07901 4.45083,5.45994 7.29639,9.86675 7.29639,11.29966 0,2.92257 -1.07456,5.00665 -12.50319,24.2497 -5.06307,8.525 -18.88518,31.925 -30.71579,52 -11.83061,20.075 -37.03406,62.825 -56.00768,95 C 548.85597,897.60641 544,905.88667 544,906.44959 544,906.75232 560.35526,907 580.34501,907 c 33.37128,0 36.4688,-0.14318 37.85794,-1.75 z M 823.8169,683.67488 C 819.15412,679.66266 689,511.26997 689,509.24952 c 0,-1.09354 1.72879,-4.18455 3.84176,-6.86889 2.11296,-2.68435 31.65275,-40.65563 65.64398,-84.38063 33.99123,-43.725 62.93597,-80.72637 64.32165,-82.22527 1.54906,-1.67564 3.41936,-2.6508 4.85601,-2.5319 L 830,333.43622 V 509.5053 c 0,169.82265 -0.0648,176.07398 -1.82779,176.20677 -1.00529,0.0757 -2.96518,-0.84101 -4.35531,-2.03719 z M 823.5,509.50005 c 0,-89.375 -0.3375,-162.50001 -0.75,-162.50002 -0.4125,-2e-5 -0.75,0.35229 -0.75,0.7829 0,0.91273 -3.51679,5.50852 -6.75,8.821 -1.2375,1.26784 -2.25,2.68186 -2.25,3.14228 0,0.46041 -1.575,2.50691 -3.5,4.54777 -1.925,2.04086 -3.50719,4.04712 -3.51597,4.45834 -0.009,0.41122 -1.24629,2.16505 -2.75,3.8974 -1.50372,1.73235 -5.88403,7.30205 -9.73403,12.37711 -3.85,5.07506 -8.49019,11.08269 -10.31152,13.35028 -1.82134,2.26759 -3.85394,4.79789 -4.51689,5.62289 -0.66295,0.825 -2.54279,3.3 -4.17743,5.5 -1.63463,2.2 -3.76453,4.72778 -4.73311,5.6173 -0.96858,0.88951 -1.76824,2.01451 -1.77702,2.5 -0.009,0.48548 -1.24629,2.30367 -2.75,4.04041 -4.00126,4.62133 -5.43302,6.39415 -8.75092,10.83549 -1.64071,2.19626 -3.99561,5.02921 -5.23311,6.29545 -1.2375,1.26624 -2.25,2.66506 -2.25,3.10849 0,0.44343 -1.35,2.21888 -3,3.94544 -1.65,1.72657 -3,3.48541 -3,3.90854 0,0.42312 -1.01314,1.88972 -2.25142,3.2591 -1.23829,1.36938 -4.95079,6.08825 -8.25,10.48638 -3.29922,4.39813 -6.44858,8.51042 -6.99858,9.13841 -1.90918,2.17991 -4.0498,4.88652 -7.0112,8.86499 -1.63758,2.2 -3.22877,4.225 -3.53597,4.5 -0.30721,0.275 -1.88477,2.29694 -3.50569,4.4932 -1.62093,2.19626 -3.95964,5.02921 -5.19714,6.29545 -1.2375,1.26624 -2.25,2.66506 -2.25,3.10849 0,0.44343 -1.35,2.21888 -3,3.94544 -1.65,1.72657 -3,3.59331 -3,4.14832 0,0.555 -0.5625,1.04463 -1.25,1.08805 -1,0.0632 -1,0.17982 0,0.58333 0.6875,0.27741 1.25,0.91584 1.25,1.41873 0,0.50289 1.575,2.58415 3.5,4.62501 1.925,2.04086 3.5,4.12662 3.5,4.63502 0,0.5084 0.81064,1.65215 1.80143,2.54166 0.99078,0.88952 3.12828,3.40836 4.75,5.59744 3.82703,5.16592 5.35681,7.1083 8.69857,11.04461 1.5125,1.78161 2.75479,3.62987 2.76065,4.10727 0.006,0.47739 1.58085,2.39368 3.5,4.25842 1.91914,1.86475 3.48935,3.73467 3.48935,4.15539 0,0.42072 1.60269,2.72002 3.56152,5.10956 5.17929,6.31808 5.67337,6.94393 8.95537,11.3438 1.64071,2.19955 3.77061,4.8719 4.73311,5.93856 0.9625,1.06665 1.75,2.25693 1.75,2.64506 0,0.38812 1.2375,2.03347 2.75,3.65632 1.5125,1.62285 3.65,4.18198 4.75,5.68695 1.89261,2.58938 2.95623,3.93418 6.51689,8.23971 0.83428,1.00882 2.85672,3.63421 4.49431,5.83421 1.63758,2.2 3.20754,4.225 3.4888,4.5 0.28126,0.275 1.85122,2.3 3.4888,4.5 1.63759,2.2 3.51984,4.675 4.18279,5.5 5.49674,6.84037 8.31567,10.43147 11.32841,14.43151 3.16398,4.20085 8.15497,10.61933 11.32841,14.56849 0.66295,0.825 2.5452,3.3 4.18279,5.5 1.63758,2.2 3.22877,4.225 3.53597,4.5 0.30721,0.275 1.88477,2.29106 3.50569,4.48014 3.06043,4.13313 4.72875,6.24793 7.69714,9.75708 0.9625,1.13784 1.75,2.44995 1.75,2.91579 0,0.46584 0.3375,0.847 0.75,0.84701 0.4125,2e-5 0.75,-73.12497 0.75,-162.49997 z m 133.99822,401.26272 c -0.30046,-1.24452 -0.42298,-182.84169 -0.27226,-403.54925 0.24271,-355.41167 0.44552,-401.39489 1.77404,-402.23469 2.01189,-1.27179 64.0906,-1.27508 67.4349,-0.004 l 2.5651,0.97525 v 67.09049 c 0,65.32576 0.1854,69.84249 2.9533,71.95901 0.3596,0.275 3.3133,3.875 6.5638,8 3.2504,4.125 6.3763,7.9829 6.9464,8.57312 0.5701,0.59021 2.3865,2.79025 4.0365,4.88896 1.65,2.09872 3.4663,4.31581 4.0362,4.92688 0.57,0.61107 2.37,2.91067 4,5.11023 1.6301,2.19955 3.7972,4.89955 4.8157,6 1.0186,1.10044 3.0436,3.57581 4.5,5.50081 1.4565,1.925 3.8835,4.85 5.3935,6.5 1.5099,1.65 2.7474,3.31705 2.75,3.70455 0,0.3875 1.0211,1.7375 2.2634,3 1.2424,1.2625 4.0549,4.54485 6.25,7.29411 2.1952,2.74926 4.4632,5.50336 5.04,6.12021 0.5768,0.61686 3.2768,3.87829 6,7.24761 2.7232,3.36933 5.1762,6.12713 5.4512,6.12845 0.275,0.001 2.075,-2.9214 4,-6.49493 1.925,-3.57353 3.8375,-6.49793 4.25,-6.49867 0.4125,-7.3e-4 0.75,-0.67633 0.75,-1.50133 0,-0.825 0.3375,-1.50426 0.75,-1.50947 0.4125,-0.005 1.6384,-2.03021 2.7241,-4.5 1.0858,-2.46979 2.2708,-4.49053 2.6334,-4.49053 0.3626,0 0.9207,-0.7875 1.2402,-1.75 0.3195,-0.9625 2.6381,-5.125 5.1523,-9.25 2.5142,-4.125 4.8328,-8.2875 5.1523,-9.25 0.3195,-0.9625 0.9785,-1.75 1.4643,-1.75 0.4859,0 0.8834,-0.47162 0.8834,-1.04804 0,-0.57642 1.575,-3.51015 3.5,-6.51941 1.925,-3.00926 3.5,-5.87515 3.5,-6.36863 0,-0.49349 0.3375,-1.04725 0.75,-1.23059 0.4125,-0.18333 2.1,-2.91926 3.75,-6.07983 1.65,-3.16058 3.3375,-5.74808 3.75,-5.75 0.4125,-0.002 0.75,-0.46244 0.75,-1.02337 0,-0.56093 1.1492,-2.84028 2.5537,-5.06522 2.5421,-4.02693 4.4667,-7.34526 9.2306,-15.91491 1.3759,-2.475 3.3373,-5.69447 4.3587,-7.15437 1.0213,-1.4599 1.857,-3.1474 1.857,-3.75 0,-0.6026 0.3375,-1.0967 0.75,-1.09801 0.4125,-0.001 2.0842,-2.5888 3.715,-5.75 1.6307,-3.16119 4.4432,-8.0885 6.25,-10.94958 1.8067,-2.86108 3.285,-5.58873 3.285,-6.06144 0,-0.47271 0.7875,-1.73183 1.75,-2.79804 0.9625,-1.06621 3.0611,-4.41356 4.6636,-7.43856 1.6025,-3.025 4.19,-7.38108 5.75,-9.68018 1.56,-2.29909 2.8364,-4.45821 2.8364,-4.79803 0,-0.33983 1.575,-3.07998 3.5,-6.08924 1.925,-3.00926 3.5,-5.91265 3.5,-6.45197 0,-0.53932 0.3513,-0.98058 0.7808,-0.98058 0.4294,0 1.3062,-1.2375 1.9484,-2.75 1.3518,-3.18351 6.2067,-11.51414 7.1391,-12.25 0.3485,-0.275 1.6766,-2.63635 2.9515,-5.24745 1.2749,-2.6111 2.8498,-5.3111 3.4999,-6 0.65,-0.6889 2.4926,-3.72755 4.0947,-6.75255 1.602,-3.025 4.1892,-7.38108 5.7492,-9.68018 1.56,-2.29909 2.8364,-4.46662 2.8364,-4.81672 0,-0.3501 1.1784,-2.18152 2.6187,-4.06982 l 2.6187,-3.43328 h 38.7563 c 21.316,0 40.1684,0.28242 41.8943,0.62759 3.5733,0.71468 5.1838,4.42651 3.2583,7.50977 -0.6305,1.00953 -1.1463,2.51661 -1.1463,3.34907 0,0.83246 -0.3401,1.51357 -0.7559,1.51357 -0.4157,0 -1.3922,1.4625 -2.1699,3.25 -0.7777,1.7875 -1.675,3.475 -1.9941,3.75 -0.319,0.275 -1.4801,2.3 -2.5801,4.5 -1.1,2.2 -2.7875,4.87235 -3.75,5.93856 -0.9625,1.06621 -1.75,2.52871 -1.75,3.25 0,0.72129 -0.3513,1.31144 -0.7808,1.31144 -0.4294,0 -1.2978,1.2375 -1.9299,2.75 -1.1327,2.71077 -4.3147,8.27539 -5.2893,9.25 -0.275,0.275 -0.9905,1.4 -1.59,2.5 -3.8425,7.05069 -6.8586,12.33285 -8.2794,14.5 -0.9015,1.375 -2.4955,4.1875 -3.5423,6.25 -1.0468,2.0625 -2.1984,3.75 -2.5591,3.75 -0.3608,0 -1.2739,1.575 -2.0292,3.5 -0.7553,1.925 -1.7393,3.5 -2.1866,3.5 -0.4474,0 -0.8134,0.56851 -0.8134,1.26335 0,0.69484 -1.575,3.60209 -3.5,6.46055 -1.925,2.85846 -3.5,5.66495 -3.5,6.23665 0,0.5717 -0.3513,1.03945 -0.7808,1.03945 -0.4294,0 -1.2978,1.2375 -1.9299,2.75 -1.1327,2.71077 -4.3147,8.27539 -5.2893,9.25 -0.275,0.275 -0.9905,1.4 -1.59,2.5 -3.8425,7.05069 -6.8586,12.33285 -8.2794,14.5 -0.9015,1.375 -2.4955,4.1875 -3.5423,6.25 -1.0468,2.0625 -2.2824,3.75 -2.7458,3.75 -0.4634,0 -0.8425,0.9 -0.8425,2 0,1.1 -0.45,2 -1,2 -0.55,0 -1,0.675 -1,1.5 0,0.825 -0.45,1.5 -1,1.5 -0.55,0 -1,0.56851 -1,1.26335 0,0.69484 -1.575,3.60209 -3.5,6.46055 -1.925,2.85846 -3.5,5.66495 -3.5,6.23665 0,0.5717 -0.3375,1.04114 -0.75,1.0432 -0.4125,0.002 -1.5821,2.02706 -2.5991,4.5 -1.0169,2.47294 -2.2544,4.49625 -2.75,4.49625 -0.4955,0 -0.9009,0.44126 -0.9009,0.98058 0,0.53932 -1.476,3.35182 -3.2801,6.25 -1.804,2.89818 -3.905,6.50692 -4.6689,8.01942 -0.7639,1.5125 -1.7629,2.75 -2.22,2.75 -0.457,0 -0.831,0.9 -0.831,2 0,1.1 -0.3513,2 -0.7808,2 -0.4294,0 -1.2978,1.2375 -1.9299,2.75 -1.3046,3.122 -4.4658,8.50026 -5.4369,9.25 -0.6128,0.47307 -4.8131,7.86843 -7.2372,12.7422 -0.6134,1.23321 -1.4527,2.24571 -1.8652,2.25 -0.4125,0.004 -0.75,0.6828 -0.75,1.5078 0,0.825 -0.3596,1.5 -0.7991,1.5 -0.4395,0 -1.3669,1.57028 -2.0609,3.4895 -0.694,1.91923 -1.7969,4.07043 -2.4509,4.78044 -1.3798,1.49801 -3.4586,4.94128 -7.8364,12.98006 -1.7222,3.1625 -3.5187,5.75 -3.992,5.75 -0.4734,0 -0.8607,0.9 -0.8607,2 0,1.1 -0.3513,2 -0.7808,2 -0.4294,0 -1.2978,1.2375 -1.9299,2.75 -1.1327,2.71077 -4.3147,8.27539 -5.2893,9.25 -0.527,0.52704 -2.5404,4.07647 -6.1788,10.89298 -1.2058,2.25886 -2.5588,4.10702 -3.0067,4.10702 -0.448,0 -0.8145,0.675 -0.8145,1.5 0,0.825 -0.3375,1.50169 -0.75,1.50375 -0.4125,0.002 -1.5821,2.02706 -2.5991,4.5 -1.0169,2.47294 -2.3078,4.49625 -2.8686,4.49625 -0.8509,0 3.292,6.37525 5.1987,8 0.3228,0.275 2.3716,2.75 4.5529,5.5 2.1814,2.75 4.2064,5.225 4.5,5.5 0.4567,0.42772 3.9947,4.80572 9.9661,12.33249 0.825,1.03988 1.95,2.40358 2.5,3.03044 0.55,0.62687 2.7847,3.38915 4.9661,6.13841 2.1813,2.74926 4.2301,5.22366 4.5529,5.49866 0.3227,0.275 1.9129,2.3 3.5339,4.5 1.6209,2.2 3.5302,4.61523 4.2429,5.36718 0.7126,0.75195 4.8305,5.70195 9.1507,11 4.3203,5.29805 14.4826,17.73282 22.583,27.63282 19.3354,23.63114 18.1761,21.68923 15.352,25.71569 -3.0235,4.31083 -11.6326,14.80313 -14.0089,17.07327 -1.0299,0.98392 -1.8726,2.16716 -1.8726,2.62941 0,0.46226 -1.8,2.69524 -4,4.96219 -2.2,2.26695 -4,4.47746 -4,4.91225 0,0.43478 -1.4625,2.35891 -3.25,4.27585 -1.7875,1.91693 -4.5769,5.27318 -6.1986,7.45833 -1.6217,2.18516 -3.6517,4.64801 -4.511,5.47301 -0.8594,0.825 -2.8999,3.3 -4.5346,5.5 -2.9319,3.94596 -4.2347,5.57967 -7.8422,9.83421 -1.0101,1.19118 -3.0351,3.69082 -4.5,5.55475 -1.465,1.86393 -3.1299,3.88893 -3.6998,4.5 -0.57,0.61107 -2.365,2.91104 -3.989,5.11104 -1.624,2.2 -3.6558,4.675 -4.5152,5.5 -0.8593,0.825 -2.8843,3.3 -4.5,5.5 -1.6156,2.2 -3.6224,4.675 -4.4596,5.5 -0.8372,0.825 -2.844,3.3 -4.4596,5.5 -1.6157,2.2 -3.6407,4.675 -4.5,5.5 -3.34,3.20647 -7.263,9.24842 -6.4009,9.85842 1.5533,1.09912 4.3605,5.99598 4.3605,7.6064 0,0.84435 0.45,1.53518 1,1.53518 0.55,0 1,0.675 1,1.5 0,0.825 0.3665,1.5 0.8145,1.5 0.4479,0 1.8009,1.84816 3.0067,4.10702 3.6384,6.81651 5.6518,10.36594 6.1788,10.89298 0.9746,0.97461 4.1566,6.53923 5.2893,9.25 0.6321,1.5125 1.5005,2.75 1.9299,2.75 0.4295,0 0.7808,0.69382 0.7808,1.54181 0,0.848 0.8805,2.4869 1.9566,3.642 1.0762,1.1551 2.8628,3.94879 3.9703,6.20819 2.5191,5.13886 5.2137,9.65693 6.7622,11.33806 0.654,0.71001 1.7569,2.86121 2.4509,4.78044 0.694,1.91922 1.6214,3.4895 2.0609,3.4895 0.4395,0 0.7991,0.675 0.7991,1.5 0,0.825 0.3665,1.5 0.8145,1.5 0.4479,0 1.8009,1.84816 3.0067,4.10702 3.6384,6.81651 5.6518,10.36594 6.1788,10.89298 0.6071,0.60711 2.573,3.99931 5.779,9.97156 1.3202,2.45935 3.26,5.67882 4.3107,7.15437 1.0507,1.47554 1.9103,3.17584 1.9103,3.77844 0,0.6026 0.3513,1.09563 0.7808,1.09563 0.4294,0 1.2978,1.2375 1.9299,2.75 1.3544,3.24112 4.2991,8.15693 5.9784,9.98006 0.654,0.71001 1.7569,2.86121 2.4509,4.78044 0.694,1.91922 1.6214,3.4895 2.0609,3.4895 0.4395,0 0.7991,0.59015 0.7991,1.31144 0,0.72129 0.7875,2.18379 1.75,3.25 0.9625,1.06621 2.65,3.73856 3.75,5.93856 1.1,2.2 2.3375,4.15 2.75,4.33333 0.4125,0.18334 0.75,0.97084 0.75,1.75 0,0.77917 0.45,1.41667 1,1.41667 0.55,0 1,0.9 1,2 0,1.1 0.3791,2 0.8425,2 0.4634,0 1.699,1.6875 2.7458,3.75 1.0468,2.0625 2.643,4.875 3.5472,6.25 2.8988,4.40827 7.9565,13.44387 8.5361,15.25 0.3089,0.9625 0.9592,1.75 1.445,1.75 0.4859,0 0.8834,0.675 0.8834,1.5 0,0.825 0.4054,1.5 0.9009,1.5 0.4956,0 1.7331,2.02331 2.75,4.49625 1.017,2.47294 2.1866,4.49794 2.5991,4.5 0.4125,0.002 0.75,0.5939 0.75,1.31519 0,0.72129 0.7875,2.18379 1.75,3.25 0.9625,1.06621 2.65,3.73856 3.75,5.93856 1.1,2.2 2.2257,4.225 2.5016,4.5 0.2759,0.275 1.1759,1.85 2,3.5 0.8241,1.65 2.2808,3.86683 3.237,4.92629 0.9562,1.05945 2.0277,2.85945 2.3812,4 0.3534,1.14054 1.4339,3.19871 2.4011,4.57371 2.5774,3.66416 8.0007,13.2246 8.6507,15.25 0.3089,0.9625 0.9592,1.75 1.445,1.75 0.4859,0 0.8834,0.44126 0.8834,0.98058 0,0.53932 1.476,3.35182 3.2801,6.25 1.804,2.89818 3.905,6.50692 4.6689,8.01942 0.7639,1.5125 1.6621,2.75 1.9959,2.75 0.3338,0 1.4952,2.02074 2.581,4.49053 1.0857,2.46979 2.3116,4.49479 2.7241,4.5 0.4125,0.005 0.76,0.57197 0.7722,1.25947 0.012,0.6875 0.9023,2.375 1.9778,3.75 1.0755,1.375 1.9655,3.2875 1.9778,4.25 0.012,0.9625 0.5007,1.75 1.0856,1.75 0.5973,0 0.926,1.42444 0.75,3.25 l -0.3134,3.25 -43.084,0.2605 -43.084,0.2605 -1.916,-3.99903 c -1.0538,-2.19946 -2.2535,-4.00419 -2.666,-4.0105 -0.4125,-0.006 -0.75,-0.68647 -0.75,-1.51147 0,-0.825 -0.45,-1.5 -1,-1.5 -0.55,0 -1,-0.69382 -1,-1.54181 0,-0.848 -0.9309,-2.5355 -2.0686,-3.75 -1.1378,-1.21451 -2.3191,-3.44569 -2.625,-4.95819 -0.306,-1.5125 -0.9501,-2.75 -1.4314,-2.75 -0.4812,0 -0.875,-0.675 -0.875,-1.5 0,-0.825 -0.3616,-1.5 -0.8035,-1.5 -0.7182,0 -4.7454,-6.73162 -7.623,-12.7422 -0.5904,-1.23321 -1.411,-2.24571 -1.8235,-2.25 -0.4125,-0.004 -0.75,-0.6828 -0.75,-1.5078 0,-0.825 -0.4054,-1.5 -0.9009,-1.5 -0.4956,0 -1.7331,-2.02331 -2.75,-4.49625 -1.017,-2.47294 -2.1866,-4.49794 -2.5991,-4.5 -0.4125,-0.002 -0.75,-0.5939 -0.75,-1.31519 0,-0.72129 -0.8022,-2.18379 -1.7827,-3.25 -0.9805,-1.06621 -2.622,-3.73856 -3.6479,-5.93856 -1.0258,-2.2 -2.1368,-4.225 -2.4688,-4.5 -0.3321,-0.275 -1.2774,-1.85 -2.1006,-3.5 -0.8232,-1.65 -1.7329,-3.225 -2.0215,-3.5 -1.2254,-1.16772 -3.9785,-6.01629 -3.9785,-7.00663 0,-0.59235 -0.8106,-1.94704 -1.8013,-3.01042 -0.9907,-1.06339 -2.7937,-3.79273 -4.0066,-6.06521 -3.6516,-6.84097 -5.6645,-10.3901 -6.1921,-10.91774 -0.9746,-0.97461 -4.1566,-6.53923 -5.2893,-9.25 -0.6321,-1.5125 -1.5005,-2.75 -1.9299,-2.75 -0.4295,0 -0.7808,-0.59015 -0.7808,-1.31144 0,-0.72129 -0.8224,-2.19416 -1.8275,-3.27305 -1.0052,-1.07889 -2.6668,-3.86375 -3.6925,-6.18857 -1.0257,-2.32482 -2.1443,-4.22694 -2.4858,-4.22694 -0.3415,0 -1.2389,-1.575 -1.9942,-3.5 -0.7553,-1.925 -1.671,-3.5 -2.0348,-3.5 -0.3638,0 -1.5114,-1.9125 -2.5503,-4.25 -1.0388,-2.3375 -2.6127,-5.04777 -3.4974,-6.02283 -0.8848,-0.97505 -2.9157,-4.35005 -4.5131,-7.5 -1.5974,-3.14994 -3.2419,-5.87717 -3.6544,-6.0605 -0.4125,-0.18334 -0.75,-0.97084 -0.75,-1.75 0,-0.77917 -0.3375,-1.42018 -0.75,-1.42447 -0.4125,-0.004 -1.2518,-1.01679 -1.8652,-2.25 -2.4646,-4.95534 -6.6715,-12.33603 -8.4745,-14.86813 -1.0507,-1.47554 -1.9103,-3.17584 -1.9103,-3.77844 0,-0.6026 -0.4414,-1.09563 -0.9809,-1.09563 -0.5396,0 -1.2634,-1.125 -1.6085,-2.5 -0.3451,-1.375 -1.0286,-2.5 -1.519,-2.5 -0.4904,0 -0.8916,-0.9 -0.8916,-2 0,-1.1 -0.45,-2 -1,-2 -0.55,0 -1,-0.46899 -1,-1.04221 0,-0.57321 -0.4651,-1.58571 -1.0335,-2.25 -1.6822,-1.96591 -7.9665,-12.87468 -7.9665,-13.82894 0,-0.48337 -0.3375,-0.88401 -0.75,-0.89032 -0.4125,-0.006 -1.6432,-1.91881 -2.7349,-4.25 -1.0916,-2.33119 -2.4308,-4.55294 -2.9759,-4.93722 -0.9364,-0.66004 -7.5392,5.62479 -7.5392,7.17607 0,0.39929 -1.2375,2.04022 -2.75,3.64649 -1.5125,1.60627 -4.0769,4.71051 -5.6986,6.89831 -1.6217,2.1878 -3.6517,4.65282 -4.511,5.47782 -0.8594,0.825 -2.8844,3.3 -4.5,5.5 -1.6157,2.2 -3.7482,4.72778 -4.739,5.6173 -0.9908,0.88951 -1.8014,1.92082 -1.8014,2.29181 0,0.37098 -0.9459,1.6682 -2.1019,2.8827 -1.1561,1.21451 -3.291,3.78319 -4.7444,5.70819 -1.4533,1.925 -2.8851,3.725 -3.1819,4 -0.2968,0.275 -2.3244,2.7494 -4.5057,5.49866 -2.1814,2.74926 -4.4161,5.50243 -4.9661,6.11815 -0.55,0.61572 -3.475,4.18963 -6.5,7.94202 -3.025,3.75239 -7.3,8.82135 -9.5,11.26437 l -4,4.44185 -0.5,68.61748 -0.5,68.61747 -35.22774,0.26277 -35.22775,0.26277 -0.54629,-2.26277 z M 1023,839.47934 l 0.5,-67.02066 36.41,-44.77978 c 20.0255,-24.62888 37.1652,-45.18398 38.0883,-45.678 3.6653,-1.96161 5.5588,0.23211 17.1047,19.8172 19.2403,32.63715 73.8675,125.44817 95.1634,161.6819 10.9907,18.7 21.3239,36.1375 22.9626,38.75 l 2.9795,4.75 h 36.9908 36.9907 l -2.7551,-4.75 c -4.3325,-7.46914 -34.296,-58.32106 -49.9373,-84.75 -7.8122,-13.2 -25.5893,-43.35 -39.5047,-67 -13.9154,-23.65 -30.3515,-51.55 -36.5246,-62 -34.7295,-58.79048 -36.4449,-61.84492 -36.0267,-64.15096 0.2321,-1.27987 10.2368,-14.36949 22.2328,-29.08804 23.6822,-29.05711 49.8727,-61.1778 62.2288,-76.31888 l 7.7999,-9.55788 -28.8711,-35.44212 c -15.8792,-19.49317 -32.1249,-39.44693 -36.1016,-44.34169 -3.9767,-4.89477 -11.3909,-13.97272 -16.476,-20.17324 -9.6348,-11.7483 -11.6475,-15.21942 -10.5347,-18.16851 0.365,-0.96727 7.7014,-13.68368 16.3032,-28.25868 8.6017,-14.575 27.7042,-46.975 42.45,-72 14.7457,-25.025 31.1926,-52.925 36.5486,-62 5.356,-9.075 20.2057,-34.275 32.9993,-56 12.7935,-21.725 26.087,-44.225 29.5411,-50 l 6.28,-10.5 -36.1666,-0.26273 c -19.8916,-0.14451 -36.6653,-0.0713 -37.2749,0.16257 -0.6095,0.23391 -3.5784,4.62714 -6.5974,9.76273 -7.8742,13.39458 -57.6855,97.89818 -83.3124,141.33743 -12.0055,20.35 -26.2966,44.65 -31.7581,54 -5.4615,9.35 -10.3907,17.5625 -10.9537,18.25 -0.563,0.6875 -2.2388,1.25 -3.7239,1.25 -2.3495,0 -7.3659,-5.72595 -38.6275,-44.09109 -19.7601,-24.25009 -36.3774,-44.83759 -36.9274,-45.75 -0.6262,-1.03877 -1.1869,-26.51807 -1.5,-68.15891 l -0.5,-66.5 -29.43147,-0.26539 c -22.87917,-0.20631 -29.61061,0.0163 -30.23613,1 -0.92379,1.45273 -1.13752,789.80668 -0.21478,792.21132 0.53867,1.40374 3.97185,1.55344 30.24501,1.31878 L 1022.5,906.5 Z m 0.4501,-154.36257 C 1022.4953,684.16197 1023.0414,334.48334 1024,333 c 0.8617,-1.33333 0.9728,-1.33333 1,0 0.022,1.05303 0.2544,1.14818 0.7815,0.31932 0.5531,-0.86969 1.3132,-0.738 2.8861,0.5 1.1743,0.92438 22.9587,28.45568 48.4096,61.18068 25.4509,32.725 55.6453,71.5039 67.0986,86.17533 11.4533,14.67143 20.8242,27.30014 20.8242,28.0638 0,0.76366 -13.3086,18.45976 -29.5746,39.32467 -16.2661,20.86491 -31.477,40.4112 -33.802,43.4362 -17.4269,22.67341 -69.3592,89.02238 -71.3671,91.17889 -2.1882,2.35022 -5.4618,3.28228 -6.8062,1.93788 z M 1030,673.04545 c 0,-0.525 1.125,-2.07954 2.5,-3.45454 1.375,-1.375 2.5,-2.76591 2.5,-3.09091 0,-0.325 1.125,-1.71591 2.5,-3.09091 1.375,-1.375 2.5,-2.83506 2.5,-3.24457 0,-0.40951 1.8,-2.73355 4,-5.16452 2.2,-2.43097 4,-4.7189 4,-5.08428 0,-0.36539 1.575,-2.38383 3.5,-4.48544 1.925,-2.10162 3.5,-4.40818 3.5,-5.1257 0,-0.71752 0.3375,-1.30765 0.75,-1.31141 0.4125,-0.004 1.875,-1.66593 3.25,-3.6937 1.375,-2.02778 3.5125,-4.70425 4.75,-5.94772 1.2375,-1.24346 2.2539,-2.6188 2.2587,-3.0563 0,-0.4375 1.5797,-2.45291 3.5,-4.4787 1.9202,-2.02578 3.4913,-4.16328 3.4913,-4.75 0,-0.58671 0.3375,-1.06982 0.75,-1.07358 0.4125,-0.004 1.8578,-1.6332 3.2118,-3.62097 1.354,-1.98777 3.7165,-4.95729 5.25,-6.59892 1.5335,-1.64164 2.7882,-3.32046 2.7882,-3.73072 0,-0.41026 1.35,-2.15858 3,-3.88514 1.65,-1.72657 3,-3.40046 3,-3.71975 0,-0.31929 0.5625,-1.16352 1.25,-1.87608 2.5815,-2.67562 5.75,-6.59604 5.75,-7.11465 0,-0.29582 1.125,-1.66285 2.5,-3.03785 1.375,-1.375 2.5,-2.84161 2.5,-3.25913 0,-0.41752 1.4986,-2.39521 3.3302,-4.39486 1.8316,-1.99965 4.4191,-5.23451 5.75,-7.18858 1.3309,-1.95407 2.7573,-3.55593 3.1698,-3.55969 0.4125,-0.004 0.7521,-0.56933 0.7548,-1.25683 0,-0.6875 1.5776,-2.96254 3.5,-5.05565 1.9223,-2.09311 3.5056,-4.11811 3.5184,-4.5 0.013,-0.38189 1.5878,-2.43154 3.5,-4.55477 1.9122,-2.12323 3.4789,-4.14823 3.4814,-4.5 0,-0.35177 1.2491,-1.98958 2.77,-3.63958 1.5209,-1.65 4.5522,-5.475 6.7362,-8.5 2.1839,-3.025 4.9874,-6.53295 6.23,-7.79545 1.2426,-1.2625 2.2592,-2.65826 2.2592,-3.10169 0,-0.44343 1.246,-2.11047 2.7689,-3.70455 1.5229,-1.59407 3.5407,-4.00072 4.4841,-5.34811 1.6052,-2.29269 1.6081,-2.61335 0.046,-5 -0.9181,-1.40261 -2.9338,-3.9002 -4.4794,-5.5502 -1.5457,-1.65 -2.8123,-3.26865 -2.8149,-3.59699 0,-0.32834 -0.9596,-1.67834 -2.1268,-3 -1.1672,-1.32166 -3.9772,-4.87801 -6.2443,-7.90301 -2.2672,-3.025 -4.3735,-5.725 -4.6807,-6 -0.3072,-0.275 -1.8822,-2.3 -3.5,-4.5 -1.6178,-2.2 -3.1931,-4.225 -3.5007,-4.5 C 1125.9947,470.2501 1116,456.91501 1116,456.05338 1116,455.47402 1115.5867,455 1115.0816,455 c -0.5052,0 -1.9182,-1.61754 -3.14,-3.59452 -1.2219,-1.97699 -3.2836,-4.65654 -4.5816,-5.95455 -1.298,-1.29801 -2.36,-2.63762 -2.36,-2.9769 0,-0.33929 -0.5625,-1.20988 -1.25,-1.93465 -0.6875,-0.72477 -2.15,-2.56692 -3.25,-4.09366 -1.1,-1.52674 -2.4663,-3.2641 -3.0362,-3.8608 -0.57,-0.59671 -2.37,-2.87494 -4,-5.06274 -1.6301,-2.1878 -4.2013,-5.29204 -5.7138,-6.89831 -1.5125,-1.60627 -2.75,-3.2833 -2.75,-3.72673 0,-0.44343 -1.125,-1.93123 -2.5,-3.30623 -1.375,-1.375 -2.5,-2.7776 -2.5,-3.11688 0,-0.33929 -0.5625,-1.19988 -1.25,-1.91244 -3.2206,-3.33798 -5.75,-6.66761 -5.75,-7.5692 0,-0.54581 -0.3375,-0.99546 -0.75,-0.99922 -0.4125,-0.004 -1.875,-1.6588 -3.25,-3.67786 -1.375,-2.01906 -2.9593,-4.15348 -3.5206,-4.74316 -0.5614,-0.58968 -2.8114,-3.32215 -5,-6.07215 -2.1887,-2.75 -4.3169,-5.15 -4.7294,-5.33333 -0.4125,-0.18334 -0.75,-0.90947 -0.75,-1.61364 0,-0.70417 -1.0399,-2.35417 -2.3108,-3.66667 -1.271,-1.3125 -3.3987,-3.96136 -4.7283,-5.88636 -1.3296,-1.925 -3.3272,-4.42533 -4.4391,-5.5563 -1.112,-1.13096 -3.1468,-3.71539 -4.5218,-5.74317 -1.375,-2.02777 -2.8375,-3.68994 -3.25,-3.6937 -0.4125,-0.004 -0.75,-0.45341 -0.75,-0.99922 0,-0.54582 -0.8819,-2.00832 -1.9598,-3.25 -1.0778,-1.24169 -2.5403,-3.05338 -3.25,-4.02599 -1.0555,-1.44677 -1.2902,28.24312 -1.2902,163.24999 0,90.7601 0.3375,165.01837 0.75,165.01838 0.4125,0 0.75,-0.42954 0.75,-0.95454 z m 339.0111,238.46786 c -0.9569,-1.15299 -0.98,-1.84582 -0.097,-2.90982 0.8273,-0.99683 1.1253,-9.88304 1.0411,-31.04954 -0.087,-21.7954 0.2011,-30.03739 1.0859,-31.10349 1.0057,-1.21174 6.4472,-1.45046 33.0623,-1.45046 h 31.8585 l 0.5487,2.25 c 0.3018,1.2375 0.4229,16.425 0.2691,33.75 l -0.2797,31.5 -33.1165,0.26331 c -28.5653,0.22713 -33.2891,0.0553 -34.3724,-1.25 z m 62.3586,-5.76331 c 0.9074,-3.38601 0.7217,-52.0577 -0.2042,-53.5164 -0.6235,-0.98238 -6.9558,-1.20666 -28.2347,-1 L 1375.5,851.5 l -0.2668,26.98509 c -0.1467,14.8418 -0.048,27.5543 0.2186,28.25 0.3751,0.97732 6.7185,1.26491 27.9002,1.26491 h 27.4147 z M 417.17865,172.64455 C 415.6808,170.98895 415.5,167.34519 415.5,138.81369 c 0,-30.49812 0.0897,-32.04099 1.94113,-33.39456 1.57876,-1.15421 7.73919,-1.41627 33,-1.40382 17.08238,0.008 31.66711,0.40075 32.4105,0.87183 1.92453,1.21956 1.71236,65.95798 -0.22255,67.90458 -0.98542,0.99139 -8.54847,1.34015 -32.52786,1.5 -29.31202,0.1954 -31.34771,0.0935 -32.92257,-1.64717 z M 477.8,166.8 c 1.38979,-1.38979 1.7316,-52.41425 0.36553,-54.5664 -0.62356,-0.98238 -6.95584,-1.20666 -28.23468,-1 L 422.5,111.5 l -0.26657,26.87757 c -0.18837,18.9927 0.0676,27.28018 0.87244,28.25 1.55049,1.86822 52.83665,2.02991 54.69413,0.17243 z m 893.6287,6.12126 C 1370.257,171.62653 1370,165.92533 1370,141.23028 c 0,-18.99614 -0.3692,-30.3404 -1,-30.73028 -1.5126,-0.93486 -1.2119,-2.28807 1,-4.5 1.9152,-1.91525 3.3333,-2 33.4648,-2 30.0849,0 31.5102,0.0848 32.5,1.93426 1.2512,2.3379 1.4149,64.91871 0.1749,66.87386 -0.65,1.02496 -7.589,1.34966 -32.056,1.5 -27.3395,0.168 -31.4042,-0.005 -32.655,-1.38686 z m 58.637,-5.95644 c 1.8345,-0.98175 1.9336,-2.33679 1.9206,-26.25 -0.01,-13.86815 -0.2868,-26.23434 -0.6207,-27.48043 l -0.607,-2.2656 -27.6293,0.2656 -27.6293,0.26561 -0.2668,26.98509 c -0.1467,14.8418 -0.048,27.5543 0.2186,28.25 0.6234,1.62446 51.6071,1.83891 54.6139,0.22973 z"
       style="fill:#000000" />
  </g>
</svg>
